<?xml version="1.0" encoding="UTF-8"?>
<svg id="Layer_1" data-name="Layer 1" xmlns="http://www.w3.org/2000/svg" viewBox="0 0 1283.31 1109.75">
  <defs>
    <style>
      .cls-1 {
        fill: red;
        stroke: #000;
        stroke-miterlimit: 10;
      }
    </style>
  </defs>
  <g id="Layer_1-2" data-name="Layer 1">
    <circle class="cls-1" cx="641.69" cy="163.26" r="110.4" transform="translate(72.51 501.56) rotate(-45)"/>
    <path class="cls-1" d="m486.49,514.46l-1,49.6c0,1.8-1.5,3.2-3.3,3.2H150.29c-1.9,0-3.4,1.6-3.3,3.5.9,15.4,8.2,77.5,69.4,103.4,15.1,6.4,31.3,9.5,47.7,9.5h217.9c1.8,0,3.3,1.5,3.3,3.3v255.7c0,13.4,2.3,26.8,6.9,39.4,12.3,34,44.5,90.8,122.9,92.4,1.9,0,3.4-1.4,3.4-3.3V441.06c0-34.2-10-67.8-29.4-96-22.1-32.1-56.9-71.5-127.2-71.5H53.19c-1.9,0-3.4,1.6-3.3,3.6,1.8,23.4,17.4,153.9,143.6,154.9h200.6c-1.8-.8,92-.2,92.4,82.4Z"/>
    <path class="cls-1" d="m795.09,514.46l1,49.6c0,1.8,1.5,3.2,3.3,3.2h331.9c1.9,0,3.4,1.6,3.3,3.5-.9,15.4-8.2,77.5-69.4,103.4-15.1,6.4-31.3,9.5-47.7,9.5h-218c-1.8,0-3.3,1.5-3.3,3.3v255.7c0,13.4-2.3,26.8-6.9,39.4-12.3,34-44.5,90.8-122.9,92.4-1.9,0-3.4-1.4-3.4-3.3V441.06c0-34.2,10-67.8,29.4-96,22.1-32.1,56.9-71.5,127.2-71.5h408.9c1.9,0,3.4,1.6,3.3,3.6-1.8,23.4-17.4,153.9-143.6,154.9h-200.7c1.8-.8-91.9-.2-92.4,82.4Z"/>
  </g>
</svg>